<?xml version="1.0" standalone="no"?>
<!DOCTYPE svg PUBLIC "-//W3C//DTD SVG 1.1//EN" "http://www.w3.org/Graphics/SVG/1.1/DTD/svg11.dtd" >
<svg xmlns="http://www.w3.org/2000/svg">
<metadata>
This is a custom SVG webfont generated by Fontspring.
Designer    : Ray Larabie
Foundry     : Ray Larabie
Foundry URL : http://www.typodermic.com
</metadata>
<defs>
<font id="webfont" horiz-adv-x="591" >
<font-face units-per-em="1000" ascent="768" descent="-232" />
<missing-glyph horiz-adv-x="319" />
<glyph unicode=" "  horiz-adv-x="319" />
<glyph unicode="&#x09;" horiz-adv-x="319" />
<glyph unicode="&#xa0;" horiz-adv-x="319" />
<glyph unicode="!" horiz-adv-x="170" d="M47 179l-14 513h100l-18 -513h-68zM27 39q0 24 15.5 40t39.5 16q23 0 40 -16.5t17 -39.5t-16.5 -38.5t-40.5 -15.5t-39.5 15.5t-15.5 38.5z" />
<glyph unicode="&#x22;" horiz-adv-x="281" d="M236 426h-48l-11 307h73zM89 426h-48l-11 307h73z" />
<glyph unicode="#" horiz-adv-x="561" d="M383 182l-36 -182h-64l36 182h-136l-36 -182h-63l36 182h-108v62h120l38 191h-119v63h131l37 194h65l-38 -194h136l38 194h65l-39 -194h99v-63h-111l-39 -191h111v-62h-123zM233 435l-38 -191h137l38 191h-137z" />
<glyph unicode="$" horiz-adv-x="458" d="M194 0v71q-106 12 -181 77l55 65q62 -62 160 -62q50 0 88.5 17.5t38.5 56.5t-31 63t-74.5 37t-87.5 28.5t-75 48.5t-31 85q0 56 39 91t99 44v70h82v-71q82 -15 132 -76l-63 -52q-41 49 -113 49q-39 0 -66.5 -13.5t-27.5 -40.5t23 -43q24 -17 65 -32.5l75.5 -27.5 t67.5 -29.5t52 -48t19 -74.5q0 -73 -46.5 -112.5t-117.5 -48.5v-72h-82z" />
<glyph unicode="%" horiz-adv-x="676" d="M502 291q62 0 105.5 -43.5t43.5 -105.5t-43.5 -105.5t-105.5 -43.5t-105.5 43.5t-43.5 105.5t43.5 105.5t105.5 43.5zM170 698q62 0 105.5 -44t43.5 -105q0 -62 -43.5 -105.5t-105.5 -43.5t-105 43.5t-43 105.5t43 105.5t105 43.5zM512 691h76l-434 -691h-73zM502 226 q-36 0 -60.5 -25t-24.5 -60q0 -36 24.5 -60.5t60.5 -24.5t61 24.5t25 60.5t-25 60.5t-61 24.5zM170 634q-36 0 -60.5 -25t-24.5 -61t25 -60.5t60 -24.5q36 0 61 24.5t25 60.5q0 35 -25 60.5t-61 25.5z" />
<glyph unicode="&#x26;" horiz-adv-x="650" d="M247 705q116 0 170 -78l-67 -73q-41 50 -102 50q-34 0 -56.5 -19t-22.5 -56q0 -67 84.5 -158t206.5 -178q34 47 39 135h100q-4 -123 -55 -191l90 -60l-51 -86l-102 69q-77 -74 -204 -74q-117 0 -186 67.5t-69 163.5q0 107 92 177q-44 61 -44 133t49.5 125t127.5 53z M269 85q66 0 121 39q-139 103 -218 190q-52 -43 -52 -96q0 -56 41.5 -94.5t107.5 -38.5z" />
<glyph unicode="'" horiz-adv-x="127" d="M85 426h-48l-11 307h73z" />
<glyph unicode="(" horiz-adv-x="249" d="M229 -169h-76q-136 203 -136 429q0 228 136 431h75q-147 -190 -147 -431q0 -214 148 -429z" />
<glyph unicode=")" horiz-adv-x="250" d="M94 -170h-76q148 218 148 430q0 241 -147 431h75q136 -199 136 -431q0 -231 -136 -430z" />
<glyph unicode="*" horiz-adv-x="412" d="M370 601l25 -77l-126 -41l79 -106l-68 -51l-76 104l-75 -104l-68 51l79 106l-126 41l25 77l125 -41v132h81v-132z" />
<glyph unicode="+" horiz-adv-x="370" d="M159 160v149h-154v61h154v146h61v-146h141v-61h-141v-149h-61z" />
<glyph unicode="," horiz-adv-x="178" d="M75 -156l-61 28l68 203l85 -34z" />
<glyph unicode="-" horiz-adv-x="375" d="M32 223v81h308v-81h-308z" />
<glyph unicode="." horiz-adv-x="151" d="M22 37q0 22 14 37.5t37 15.5q21 0 37 -16t16 -37t-16 -36t-37 -15q-23 0 -37 14.5t-14 36.5z" />
<glyph unicode="/" horiz-adv-x="360" d="M354 691l-282 -765h-67l282 765h67z" />
<glyph unicode="0" horiz-adv-x="567" d="M282 706q117 0 188.5 -94.5t71.5 -266.5t-71.5 -265.5t-188.5 -93.5t-188 93t-71 266t71 267t188 94zM282 606q-76 0 -118.5 -66t-42.5 -195t42.5 -195t118.5 -66q77 0 119.5 66t42.5 195t-42.5 195t-119.5 66z" />
<glyph unicode="1" horiz-adv-x="224" d="M89 0v538h-73v87q75 10 85 67h88v-692h-100z" />
<glyph unicode="2" horiz-adv-x="541" d="M273 706q96 0 165 -49t69 -139q0 -24 -6 -46t-14 -38.5t-24 -34t-27.5 -28t-34.5 -25t-34.5 -21l-37.5 -20.5l-35 -19q-119 -71 -148 -187h365v-99h-485q9 127 51 211t137 144q16 10 45.5 24.5t52 27t45.5 29t35.5 38t12.5 47.5q0 42 -38 64.5t-91 22.5 q-44 0 -87.5 -18.5t-71.5 -52.5l-71 71q41 46 103 72t124 26z" />
<glyph unicode="3" horiz-adv-x="534" d="M254 698q88 0 149 -44t61 -126q0 -102 -76 -143q54 -12 88 -60t34 -110q0 -100 -73 -161t-190 -61q-68 0 -129.5 23.5t-99.5 64.5l63 76q29 -31 77.5 -47.5t89.5 -16.5q76 0 120.5 33t44.5 87q0 51 -33 83.5t-94 32.5h-69v93h61q41 0 66.5 26t25.5 66q0 42 -35 64t-81 22 q-38 0 -74.5 -15.5t-56.5 -41.5l-64 72q28 41 80.5 62t114.5 21z" />
<glyph unicode="4" horiz-adv-x="567" d="M380 692h91v-472h70v-97h-70v-123h-100v123h-363v94zM371 535l-250 -318h250v318z" />
<glyph unicode="5" horiz-adv-x="564" d="M478 692v-100h-304l-16 -150q67 39 145 39q103 0 169 -61.5t66 -173.5q0 -66 -24 -116.5t-65.5 -79.5t-90.5 -43t-104 -14q-132 0 -233 86l64 78q78 -64 176 -64q83 0 130.5 42t47.5 112q0 68 -42.5 104t-104.5 36q-79 0 -149 -52l-83 34l32 323h386z" />
<glyph unicode="6" horiz-adv-x="572" d="M308 443q106 0 174 -60.5t68 -155.5q0 -98 -76 -165.5t-186 -67.5q-69 0 -122.5 24t-84 65t-46 91.5t-15.5 107.5q0 176 102 297q60 71 138.5 94.5t193.5 23.5q0 -65 -1 -98q-50 0 -87.5 -4.5t-78.5 -18.5t-70 -38.5t-52.5 -67t-36.5 -101.5q51 74 180 74zM291 355 q-70 0 -116 -34t-53 -93q6 -59 48.5 -98t116.5 -39q77 0 121.5 39.5t44.5 96.5q0 56 -45.5 92t-116.5 36z" />
<glyph unicode="7" horiz-adv-x="523" d="M20 592v100h487v-82q-111 -129 -166 -273.5t-76 -336.5h-100q22 189 70 339t142 253h-357z" />
<glyph unicode="8" horiz-adv-x="571" d="M283 698q89 0 153 -44t64 -125q0 -104 -75 -144q53 -14 87 -62.5t34 -112.5q0 -96 -73 -156.5t-190 -60.5t-189.5 60.5t-72.5 156.5q0 65 33.5 113t87.5 62q-75 41 -75 140q0 83 63.5 128t152.5 45zM283 601q-48 0 -84 -22t-36 -60q0 -53 27.5 -78t92.5 -25 q121 0 121 103q0 38 -36.5 60t-84.5 22zM283 91q76 0 121.5 34.5t45.5 85.5q0 65 -40.5 94t-126.5 29q-166 0 -166 -123q0 -50 45.5 -85t120.5 -35z" />
<glyph unicode="9" horiz-adv-x="571" d="M260 248q-106 0 -174 61t-68 156q0 96 76 164.5t186 68.5q69 0 122.5 -24t84 -65.5t46 -92t15.5 -107.5q0 -85 -27 -162.5t-75 -133.5q-61 -72 -138.5 -95t-193.5 -23q0 65 1 97q51 0 88 4t78 18t69.5 38.5t52.5 67t37 102.5q-53 -74 -180 -74zM277 337q69 0 115.5 34.5 t53.5 91.5q-6 59 -48.5 98t-116.5 39q-77 0 -121.5 -39.5t-44.5 -96.5q0 -56 45.5 -91.5t116.5 -35.5z" />
<glyph unicode=":" horiz-adv-x="159" d="M25 37q0 22 14 37.5t37 15.5q21 0 37 -16t16 -37t-16 -36t-37 -15q-23 0 -37 14.5t-14 36.5zM28 439q0 22 14 37.5t37 15.5q21 0 37 -16t16 -37t-16 -36t-37 -15q-23 0 -37 14.5t-14 36.5z" />
<glyph unicode=";" horiz-adv-x="182" d="M66 -156l-61 28l68 203l85 -34zM57 439q0 21 15 37t36 16q22 0 37.5 -16t15.5 -37t-15.5 -36t-37.5 -15t-36.5 15t-14.5 36z" />
<glyph unicode="&#x3c;" horiz-adv-x="460" d="M1 309v60l435 157v-70l-344 -118l344 -118v-67z" />
<glyph unicode="=" horiz-adv-x="402" d="M388 406h-356v62h356v-62zM388 212h-356v61h356v-61z" />
<glyph unicode="&#x3e;" horiz-adv-x="470" d="M467 369v-60l-435 -156v67l344 118l-344 118v70z" />
<glyph unicode="?" horiz-adv-x="442" d="M154 39q0 24 15.5 40t39.5 16q23 0 40 -16.5t17 -39.5t-16.5 -38t-40.5 -15t-39.5 15t-15.5 38zM213 698q93 0 152 -44.5t59 -131.5q0 -57 -22.5 -97t-64.5 -82q-40 -42 -57.5 -72.5t-19.5 -74.5h-93q5 86 42 140q15 22 48 57.5t51 64t18 60.5q0 42 -31 62t-80 20 q-78 0 -143 -56l-60 81q86 73 201 73z" />
<glyph unicode="@" horiz-adv-x="709" d="M482 424v-193q19 -31 55 -31q42 0 68 43t26 92q0 120 -73 186.5t-181 66.5q-134 0 -213 -86.5t-79 -209.5q0 -115 63 -192q41 -51 92.5 -73.5t131.5 -33.5l-13 -62q-88 13 -150 41.5t-109 88.5q-78 98 -78 236q0 154 98.5 252.5t247.5 98.5q66 0 124 -18.5t103.5 -54.5 t72 -95t26.5 -134q0 -92 -44.5 -148t-123.5 -56q-54 0 -81 42q-36 -29 -88 -29q-56 0 -90 38.5t-34 96.5q0 61 36 96t96 35q36 0 58 -16v19h59zM365 366q-36 0 -54.5 -21.5t-18.5 -54.5q0 -34 18 -56.5t47 -22.5q37 0 65 18v122q-32 15 -57 15z" />
<glyph unicode="A" d="M5 0l247 692h86l248 -692h-111l-46 134h-269l-45 -134h-110zM294 545l-106 -316h213z" />
<glyph unicode="B" horiz-adv-x="567" d="M35 692h267q83 0 134.5 -50t51.5 -131q0 -95 -75 -144q48 -11 88 -58.5t40 -116.5q0 -94 -60 -143t-166 -49h-280v692zM133 398h171q35 0 62.5 31.5t27.5 68.5q0 42 -25 69t-65 27h-171v-196zM133 309v-213h193q55 0 87.5 27t32.5 76t-40 79.5t-91 30.5h-182z" />
<glyph unicode="C" horiz-adv-x="578" d="M320 606q-92 0 -144 -66t-52 -195q0 -127 52.5 -194t143.5 -67q98 0 158 77l73 -57q-87 -118 -228 -118q-134 0 -216.5 93.5t-82.5 265.5t83 266.5t216 94.5q152 0 233 -126l-73 -58q-67 84 -163 84z" />
<glyph unicode="D" horiz-adv-x="600" d="M35 692h185q148 0 251 -99.5t103 -245.5q0 -145 -103 -246t-251 -101h-185v692zM135 592v-494h86q106 0 178.5 70.5t72.5 177.5q0 109 -72 177.5t-179 68.5h-86z" />
<glyph unicode="E" horiz-adv-x="456" d="M35 0v692h381v-100h-282v-189h175v-99h-175v-207h290v-97h-389z" />
<glyph unicode="F" horiz-adv-x="428" d="M134 592v-200h180v-99h-180v-293h-99v692h381v-100h-282z" />
<glyph unicode="G" horiz-adv-x="615" d="M342 256v93h247v-92q0 -116 -71 -193.5t-196 -77.5q-133 0 -215.5 93.5t-82.5 265.5t83.5 266.5t216.5 94.5q155 0 234 -130l-74 -55q-67 85 -162 85q-92 0 -145.5 -67t-53.5 -194t53.5 -194t145.5 -67q66 0 115.5 44.5t49.5 106.5v21h-145z" />
<glyph unicode="H" horiz-adv-x="565" d="M429 0v304h-295v-304h-99v692h99v-289h295v289h100v-692h-100z" />
<glyph unicode="I" horiz-adv-x="170" d="M35 0v692h99v-692h-99z" />
<glyph unicode="J" horiz-adv-x="492" d="M209 -7q-66 0 -122.5 33t-82.5 90l74 61q21 -40 56 -63t77 -23q59 0 102 47t43 112v442h100v-442q0 -109 -72 -183t-175 -74z" />
<glyph unicode="K" horiz-adv-x="556" d="M418 0l-169 331l-115 -149v-182h-99v692h99v-362l266 362h127l-217 -282l226 -410h-118z" />
<glyph unicode="L" horiz-adv-x="469" d="M35 0v692h99v-595h325v-97h-424z" />
<glyph unicode="M" horiz-adv-x="720" d="M572 692h112v-692h-100v471l-201 -471h-48l-201 471v-471h-99v692h111l213 -500z" />
<glyph unicode="N" horiz-adv-x="580" d="M139 692l306 -510v510h99v-692h-104l-306 509v-509h-99v692h104z" />
<glyph unicode="O" horiz-adv-x="635" d="M316 706q133 0 213 -94t80 -267t-80 -266t-213 -93q-132 0 -212 93.5t-80 265.5q0 173 80 267t212 94zM316 606q-91 0 -142 -66t-51 -195t51 -195t142 -66t142.5 67t51.5 194q0 129 -51 195t-143 66z" />
<glyph unicode="P" horiz-adv-x="536" d="M35 692h266q104 0 164.5 -54t60.5 -155q0 -102 -60.5 -156t-164.5 -54h-167v-273h-99v692zM134 594v-227h169q59 0 93.5 28.5t34.5 86.5q0 57 -34.5 84.5t-93.5 27.5h-169z" />
<glyph unicode="Q" horiz-adv-x="634" d="M316 706q133 0 213 -94t80 -267q0 -181 -91 -277l45 -57l-69 -56l-48 61q-57 -30 -130 -30q-132 0 -212 93.5t-80 265.5q0 173 80 267t212 94zM316 606q-91 0 -142 -66t-51 -195t51 -195t142 -66q43 0 66 15l-74 96l71 54l75 -98q56 69 56 194q0 129 -51 195t-143 66z " />
<glyph unicode="R" horiz-adv-x="563" d="M420 0l-142 273h-144v-273h-99v692h266q104 0 164.5 -53t60.5 -152q0 -83 -40.5 -133.5t-107.5 -66.5l160 -287h-118zM134 594v-227h170q59 0 93 28.5t34 86.5q0 57 -34 84.5t-93 27.5h-170z" />
<glyph unicode="S" horiz-adv-x="580" d="M293 699q147 0 227 -94l-73 -67q-60 65 -155 65q-54 0 -92 -22t-38 -57q0 -18 8.5 -32.5t18 -23.5t33.5 -19.5t36.5 -14.5l45.5 -14q9 -3 13 -4q45 -14 72.5 -24t62.5 -29t55 -40t34 -54.5t14 -74.5q0 -55 -23.5 -96t-62.5 -63t-82.5 -32.5t-90.5 -10.5q-194 0 -278 103 l72 67q73 -76 203 -76q75 0 120 28t45 76q0 88 -149 126q-38 9 -66.5 18.5t-64 27t-58 38t-38.5 53t-16 71.5q0 78 62 126.5t165 48.5z" />
<glyph unicode="T" horiz-adv-x="504" d="M302 592v-592h-99v592h-199v100h494v-100h-196z" />
<glyph unicode="U" horiz-adv-x="567" d="M133 692v-442q0 -65 43.5 -112t105.5 -47q61 0 105.5 47t44.5 112v442h99v-442q0 -109 -73 -183t-176 -74q-102 0 -175 74t-73 183v442h99z" />
<glyph unicode="V" d="M337 0h-86l-247 692h112l179 -535l180 535h110z" />
<glyph unicode="W" horiz-adv-x="843" d="M281 0h-95l-182 692h109l124 -507l136 507h97l136 -507l124 507h107l-182 -692h-96l-139 498z" />
<glyph unicode="X" horiz-adv-x="600" d="M243 350l-217 342h118l159 -260l153 260h116l-219 -349l219 -343h-119l-158 259l-152 -259h-117z" />
<glyph unicode="Y" horiz-adv-x="573" d="M335 213v-213h-99v214l-232 478h113l169 -362l169 362h112z" />
<glyph unicode="Z" horiz-adv-x="500" d="M47 597v95h431v-79l-321 -521h321v-92h-446v77l321 520h-306z" />
<glyph unicode="[" horiz-adv-x="216" d="M32 -170v861h160v-62h-97v-738h105v-61h-168z" />
<glyph unicode="\" horiz-adv-x="359" d="M286 -74l-282 765h67l282 -765h-67z" />
<glyph unicode="]" horiz-adv-x="218" d="M183 691v-861h-169v61h106v738h-97v62h160z" />
<glyph unicode="^" horiz-adv-x="359" d="M178 600l-85 -245h-65l121 336h60l120 -336h-68z" />
<glyph unicode="_" horiz-adv-x="545" d="M547 -79h-549v80h549v-80z" />
<glyph unicode="`" horiz-adv-x="219" d="M7 710l45 58l157 -146l-31 -42z" />
<glyph unicode="a" horiz-adv-x="477" d="M353 0v51q-51 -65 -144 -65q-75 0 -131 47.5t-56 134.5q0 84 57.5 128t149.5 44q73 0 120 -41q0 79 -24 115.5t-90 36.5q-72 0 -125 -40l-43 81q59 53 177 53q103 0 150.5 -57t47.5 -181v-307h-89zM349 144v72q-38 45 -121 45q-113 0 -113 -93q0 -44 29.5 -68.5 t81.5 -24.5q40 0 75 21.5t48 47.5z" />
<glyph unicode="b" horiz-adv-x="499" d="M134 729v-248q42 64 136 64q90 0 146.5 -73t56.5 -207q0 -131 -58.5 -205t-151.5 -74q-46 0 -85 18.5t-54 50.5v-55h-89v695zM243 450q-73 0 -115 -95v-173q41 -101 119 -101q59 0 94 47.5t35 137.5q0 91 -35.5 137.5t-97.5 46.5z" />
<glyph unicode="c" horiz-adv-x="461" d="M256 447q-62 0 -98 -46.5t-36 -135.5t36 -135.5t98 -46.5q61 0 106 63l72 -64q-69 -96 -184 -96q-99 0 -162.5 73t-63.5 206q0 135 65 207.5t172 72.5q61 0 108 -27.5t71 -76.5l-76 -69q-35 75 -108 75z" />
<glyph unicode="d" horiz-adv-x="485" d="M449 729v-729h-89v55q-13 -30 -51.5 -49.5t-84.5 -19.5q-90 0 -145 73.5t-55 205.5q0 135 54.5 207.5t144.5 72.5q89 0 127 -64v214zM244 450q-126 0 -126 -184q0 -90 32 -137.5t90 -47.5q83 0 116 101v173q-32 95 -112 95z" />
<glyph unicode="e" horiz-adv-x="498" d="M248 545q100 0 161.5 -73.5t61.5 -201.5q0 -15 -5 -35h-345q5 -74 41.5 -115t96.5 -41q67 0 111 50l63 -56q-27 -39 -76 -63t-104 -24q-102 0 -165.5 73t-63.5 206q0 135 60.5 207.5t163.5 72.5zM248 453q-110 0 -124 -140h247q-7 68 -39 104t-84 36z" />
<glyph unicode="f" horiz-adv-x="234" d="M1 531h50v65q0 129 114 129q33 0 64 -11v-86q-17 9 -41 9q-19 0 -28 -10.5t-9 -36.5v-59h78v-84h-78v-447h-100v447h-50v84z" />
<glyph unicode="g" horiz-adv-x="493" d="M235 9q-98 0 -154.5 67.5t-56.5 198.5q0 129 57.5 199.5t145.5 70.5q92 0 136 -64v50h94v-422q0 -256 -241 -301l-18 86q75 21 121 69t46 113q-49 -67 -130 -67zM248 103q73 0 115 89v165q-40 98 -118 98q-59 0 -93 -45t-34 -132q0 -88 34 -131.5t96 -43.5z" />
<glyph unicode="h" horiz-adv-x="462" d="M343 0v322q0 121 -91 121q-83 0 -121 -89v-354h-99v695l99 34v-249q51 65 140 65q75 0 123 -53t48 -151v-341h-99z" />
<glyph unicode="i" horiz-adv-x="173" d="M35 531h100v-531h-100v531zM33 662q0 22 15 38t36 16q22 0 37.5 -16t15.5 -38q0 -21 -15.5 -36t-37.5 -15t-36.5 15t-14.5 36z" />
<glyph unicode="j" horiz-adv-x="196" d="M58 531h100v-534q0 -75 -42.5 -124.5t-118.5 -49.5v103q29 0 45 18.5t16 52.5v534zM107 716q22 0 37.5 -16t15.5 -38t-15.5 -36.5t-37.5 -14.5t-36.5 14.5t-14.5 36.5t15 38t36 16z" />
<glyph unicode="k" horiz-adv-x="452" d="M447 0h-118l-124 273l-71 -91v-182h-99v695l99 34v-400l145 202h128l-140 -179z" />
<glyph unicode="l" horiz-adv-x="170" d="M35 0v695l99 34v-729h-99z" />
<glyph unicode="m" horiz-adv-x="755" d="M35 531h94v-51q53 65 135 65q88 0 126 -83q50 83 144 83q88 0 137 -51t49 -149v-345h-99v322q0 67 -21.5 96t-70.5 29q-76 0 -102 -109v-338h-100v322q0 68 -21.5 96.5t-69.5 28.5q-34 0 -57.5 -22t-44.5 -71v-354h-99v531z" />
<glyph unicode="n" horiz-adv-x="480" d="M346 0v322q0 125 -101 125q-70 0 -111 -93v-354h-99v531h94v-51q56 65 145 65q75 0 123 -53t48 -151v-341h-99z" />
<glyph unicode="o" horiz-adv-x="504" d="M251 545q102 0 164.5 -73t62.5 -207t-62.5 -206.5t-164.5 -72.5t-164.5 72.5t-62.5 206.5t62.5 207t164.5 73zM251 447q-61 0 -95 -46.5t-34 -135.5t34 -135.5t95 -46.5t95.5 46.5t34.5 135.5t-34.5 135.5t-95.5 46.5z" />
<glyph unicode="p" horiz-adv-x="486" d="M34 -192v723h89v-55q14 30 52 49.5t84 19.5q90 0 145.5 -73.5t55.5 -205.5q0 -135 -54.5 -207.5t-144.5 -72.5t-128 64v-209zM239 81q126 0 126 184q0 90 -32 137.5t-90 47.5q-43 0 -73.5 -28.5t-42.5 -72.5v-173q14 -46 44.5 -70.5t67.5 -24.5z" />
<glyph unicode="q" horiz-adv-x="498" d="M363 -192v242q-42 -64 -136 -64q-90 0 -146.5 73t-56.5 207q0 131 58.5 205t151.5 74q46 0 85 -18.5t54 -50.5v55h89v-690zM254 81q37 0 67.5 24t47.5 71v173q-12 46 -43 73.5t-76 27.5q-59 0 -93.5 -47.5t-34.5 -137.5q0 -91 35 -137.5t97 -46.5z" />
<glyph unicode="r" horiz-adv-x="317" d="M35 531h94v-51q15 30 47.5 47.5t70.5 17.5q49 0 75 -26l-36 -89q-29 20 -57 20q-63 0 -95 -96v-354h-99v531z" />
<glyph unicode="s" horiz-adv-x="452" d="M222 548q112 0 175 -59l-42 -80q-20 24 -61.5 36t-75.5 12q-38 0 -61 -13.5t-23 -39.5q0 -22 51 -49q19 -10 49.5 -21.5l54.5 -20t51.5 -23t46 -31.5t30.5 -45t12 -63q0 -87 -59.5 -125t-145.5 -38q-127 0 -214 65l41 81q65 -54 170 -54q43 0 76 14.5t33 47.5 q0 15 -9 27.5t-19 20t-30 19.5q-19 10 -55 22.5t-64 24t-57 29.5t-45 47t-16 69q0 53 30.5 88t70 47t86.5 12z" />
<glyph unicode="t" horiz-adv-x="297" d="M184 -1q-46 0 -81 33t-35 91v324h-65v84h65v149l100 34v-183h107v-84h-107v-306q0 -20 14.5 -32.5t34.5 -12.5q45 0 77 36l-21 -107q-26 -26 -89 -26z" />
<glyph unicode="u" horiz-adv-x="470" d="M133 531v-289q0 -83 22 -120.5t75 -37.5q35 0 59.5 22.5t45.5 70.5v354h99v-531h-94v51q-51 -65 -134 -65q-76 0 -124 52.5t-48 151.5v341h99z" />
<glyph unicode="v" horiz-adv-x="476" d="M280 0h-84l-192 531h110l125 -374l124 374h107z" />
<glyph unicode="w" horiz-adv-x="688" d="M241 0h-87l-150 531h108l88 -352l99 352h91l98 -352l88 352h106l-150 -531h-88l-102 341z" />
<glyph unicode="x" horiz-adv-x="513" d="M201 280l-163 251h121l103 -166l93 166h121l-165 -258l177 -273h-123l-113 186l-106 -186h-121z" />
<glyph unicode="y" horiz-adv-x="477" d="M471 531l-260 -723h-104l78 220l-181 503h110l125 -374l124 374h108z" />
<glyph unicode="z" horiz-adv-x="478" d="M53 434v97h400v-80l-286 -356h286v-95h-422v79l286 355h-264z" />
<glyph unicode="{" horiz-adv-x="304" d="M241 692q24 0 36 -1v-59q-27 0 -45 -7.5t-28 -18t-15 -33t-6 -41.5t-1 -54q0 -151 -105 -217q57 -34 81 -86.5t24 -130.5q0 -35 1 -54t6 -41.5t15 -33t28 -18t45 -7.5v-59q-24 -2 -36 -2q-29 0 -51 8.5t-35 27.5t-21 36t-11 46.5t-3.5 46.5t-0.5 49q0 80 -27 126.5 t-85 66.5v53q58 21 85 65.5t27 124.5q0 31 0.5 48.5t3.5 47t11 46.5t21 35.5t35 27t51 8.5z" />
<glyph unicode="|" horiz-adv-x="132" d="M32 -170v861h63v-861h-63z" />
<glyph unicode="}" horiz-adv-x="303" d="M60 692q29 0 51 -8.5t35 -27t21 -35.5t11 -46.5t3.5 -47t0.5 -48.5q0 -80 27 -124.5t85 -65.5v-53q-58 -20 -85 -66.5t-27 -126.5q0 -32 -0.5 -49t-3.5 -46.5t-11 -46.5t-21 -36t-35 -27.5t-51 -8.5q-12 0 -36 2v59q27 0 45 7.5t28 18t15 33t6 41.5t1 54q0 78 24 130.5 t81 86.5q-105 66 -105 217q0 35 -1 54t-6 41.5t-15 33t-28 18t-45 7.5v59q12 1 36 1z" />
<glyph unicode="~" horiz-adv-x="512" d="M157 413q40 0 75.5 -20t64 -40t53.5 -20q48 0 82 57l50 -37q-23 -39 -58 -60.5t-74 -21.5q-36 0 -70.5 20t-65.5 40t-58 20q-46 0 -78 -53l-50 37q46 78 129 78z" />
<glyph unicode="&#xa1;" horiz-adv-x="172" d="M125 497l10 -512h-90v512h80zM141 638q0 -24 -15.5 -40t-39.5 -16q-23 0 -40 16.5t-17 39.5q0 22 17 37.5t40 15.5q24 0 39.5 -15.5t15.5 -37.5z" />
<glyph unicode="&#xa2;" horiz-adv-x="446" d="M206 0v72q-87 13 -138 84t-51 190q0 118 51.5 189t137.5 86v71h82v-72q44 -10 82.5 -39t61.5 -73l-63 -52q-48 87 -123 87q-68 0 -108 -50t-40 -147q0 -95 40 -146t108 -51q65 0 120 76l61 -55q-59 -79 -139 -96v-74h-82z" />
<glyph unicode="&#xa3;" horiz-adv-x="530" d="M92 332v81h47v66q0 215 199 215q84 0 148 -46l-45 -72q-20 16 -51.5 26.5t-56.5 10.5q-112 0 -112 -134v-66h185v-81h-185v-111q0 -85 -50 -141h354v-80h-481v78q44 17 69.5 63t25.5 86v105h-47z" />
<glyph unicode="&#xa5;" d="M517 122h-181v-122h-82v122h-179v71h179v93h-179v71h158l-215 335h103l175 -284l176 284h101l-216 -335h160v-71h-181v-93h181v-71z" />
<glyph unicode="&#xa6;" horiz-adv-x="117" d="M33 -170v303h63v-303h-63zM96 691v-296h-63v296h63z" />
<glyph unicode="&#xa7;" horiz-adv-x="473" d="M248 707q63 0 116 -21t78 -60l-63 -52q-17 22 -57 36t-75 14q-39 0 -71 -15t-32 -41q0 -13 10 -24t20 -16.5t31 -15.5q19 -10 58.5 -25t66.5 -27.5t56 -32t44.5 -48.5t15.5 -66q0 -78 -66 -117q66 -35 66 -116q0 -80 -61 -118.5t-146 -38.5q-124 0 -220 79l55 65 q58 -62 160 -62q50 0 88.5 17.5t38.5 56.5q0 26 -14.5 42t-46.5 31q-18 10 -53.5 23t-64 25.5t-58 30.5t-46 46t-16.5 64q0 39 23 68.5t61 42.5q-42 23 -63 51t-21 71q0 61 55 97t131 36zM249 405q-39 -3 -72 -20t-33 -44q0 -22 20 -39t42 -25.5t58 -20t50 -17.5 q47 20 47 67q0 22 -8.5 38.5t-28 28.5t-33.5 17.5t-42 14.5z" />
<glyph unicode="&#xa8;" horiz-adv-x="338" d="M79 629q-21 0 -34.5 12.5t-13.5 32.5q0 21 13.5 34t34.5 13t34.5 -13t13.5 -34q0 -20 -13.5 -32.5t-34.5 -12.5zM258 629q-20 0 -32.5 12.5t-12.5 32.5q0 21 12.5 34t32.5 13q22 0 34.5 -13t12.5 -34q0 -20 -12.5 -32.5t-34.5 -12.5z" />
<glyph unicode="&#xa9;" horiz-adv-x="766" d="M23 345q0 149 105.5 255t254.5 106t254.5 -106t105.5 -255q0 -148 -105.5 -254t-254.5 -106t-254.5 106t-105.5 254zM87 345q0 -122 87 -208.5t209 -86.5t209 86.5t87 208.5t-87 209t-209 87t-209 -87t-87 -209zM381 495q-59 0 -94 -38.5t-35 -113.5q0 -73 35 -112 t94 -39q58 0 102 55l45 -37q-59 -72 -147 -72q-84 0 -135.5 53.5t-51.5 151.5q0 100 51.5 153.5t135.5 53.5q49 0 89.5 -21.5t63.5 -63.5l-49 -33q-41 63 -104 63z" />
<glyph unicode="&#xaa;" horiz-adv-x="298" d="M208 381v22q-30 -30 -76 -30q-44 0 -76.5 29t-32.5 82q0 52 31.5 78.5t84.5 26.5q40 0 69 -23q0 79 -56 79q-40 0 -76 -29l-29 56q35 35 105 35q115 0 115 -127v-199h-59zM207 467v42q-23 23 -63 23q-58 0 -58 -48q0 -23 15 -35.5t42 -12.5q44 0 64 31z" />
<glyph unicode="&#xab;" horiz-adv-x="352" d="M173 235v54l148 125v-75l-97 -77l97 -78v-74zM12 235v54l148 125v-75l-98 -77l98 -78v-74z" />
<glyph unicode="&#xad;" horiz-adv-x="375" d="M32 223v81h308v-81h-308z" />
<glyph unicode="&#xae;" horiz-adv-x="626" d="M23 415q0 120 85 205.5t205 85.5t205 -85.5t85 -205.5t-84.5 -205t-205.5 -85q-120 0 -205 85t-85 205zM86 415q0 -94 66.5 -160t160.5 -66t161 66t67 160q0 95 -67 161.5t-161 66.5q-95 0 -161 -66.5t-66 -161.5zM222 570h101q40 0 65.5 -25t25.5 -69q0 -29 -14.5 -51 t-39.5 -29l55 -124h-62l-43 111h-34v-111h-54v298zM276 514v-74h49q15 0 24.5 9.5t9.5 26.5q0 38 -34 38h-49z" />
<glyph unicode="&#xaf;" horiz-adv-x="321" d="M33 652v59h254v-59h-254z" />
<glyph unicode="&#xb0;" horiz-adv-x="343" d="M171 698q61 0 105 -44t44 -105q0 -62 -43.5 -105.5t-105.5 -43.5t-105 43.5t-43 105.5t43 105.5t105 43.5zM171 634q-36 0 -60.5 -25t-24.5 -61t25 -60.5t60 -24.5q36 0 61 24.5t25 60.5q0 35 -25.5 60.5t-60.5 25.5z" />
<glyph unicode="&#xb1;" horiz-adv-x="393" d="M233 309v-138h-61v138h-154v61h154v146h61v-146h141v-61h-141zM18 141h356v-61h-356v61z" />
<glyph unicode="&#xb2;" horiz-adv-x="342" d="M172 700q59 0 99 -29t40 -84q0 -46 -29 -75t-78 -55q-46 -25 -71 -50.5t-36 -65.5h216v-62h-289q6 113 66 176q14 15 56 38t71.5 46.5t29.5 49.5q0 23 -22 36t-53 13q-56 0 -91 -42l-45 41q22 31 59.5 47t76.5 16z" />
<glyph unicode="&#xb3;" horiz-adv-x="335" d="M159 695q52 0 89 -27t37 -76q0 -54 -42 -82q69 -23 69 -107q0 -55 -46.5 -91t-109.5 -36q-36 0 -74 13.5t-64 39.5l39 48q39 -39 100 -39q39 0 66 20t27 47q0 28 -19 49t-53 21h-42v57h42q18 0 31.5 17.5t13.5 39.5t-18.5 33.5t-45.5 11.5q-19 0 -39 -11.5t-31 -30.5 l-45 44q17 28 48.5 43.5t66.5 15.5z" />
<glyph unicode="&#xb4;" horiz-adv-x="219" d="M166 768l45 -58l-171 -130l-31 42z" />
<glyph unicode="&#xb5;" horiz-adv-x="528" d="M434 531v-391q0 -37 32 -37q29 0 47 25v-99q-22 -32 -73 -32q-53 0 -73 44q-38 -56 -117 -56q-76 0 -118 57v-202h-99v691h99v-359q37 -93 106 -93q49 0 73 30t24 95v327h99z" />
<glyph unicode="&#xb6;" horiz-adv-x="520" d="M285 0v289h-57q-100 0 -158.5 52.5t-58.5 149.5q0 98 58 149t159 51h258v-691h-62v289h-76v-289h-63zM424 351v278h-76v-278h76z" />
<glyph unicode="&#xb7;" horiz-adv-x="152" d="M24 332q0 22 14 37.5t37 15.5q21 0 37 -15.5t16 -37.5q0 -21 -16 -36t-37 -15q-23 0 -37 14.5t-14 36.5z" />
<glyph unicode="&#xb8;" horiz-adv-x="162" d="M62 -192l-45 21l56 151h79z" />
<glyph unicode="&#xb9;" horiz-adv-x="152" d="M55 279v319h-43v55q44 5 50 38h55v-412h-62z" />
<glyph unicode="&#xba;" horiz-adv-x="320" d="M160 706q62 0 98.5 -42.5t36.5 -124.5t-36.5 -124t-98.5 -42t-99 42.5t-37 123.5q0 82 37 124.5t99 42.5zM160 644q-74 0 -74 -105t74 -105t74 105t-74 105z" />
<glyph unicode="&#xbb;" horiz-adv-x="355" d="M342 289v-54l-148 -125v74l98 78l-98 77v75zM181 289v-54l-148 -125v74l97 78l-97 77v75z" />
<glyph unicode="&#xbc;" horiz-adv-x="701" d="M589 411h47v-278h41v-60h-41v-73h-61v73h-215v48zM592 691l-470 -691h-76l469 691h77zM71 279v319h-42v55q44 5 50 38h55v-412h-63zM575 292l-127 -159h127v159z" />
<glyph unicode="&#xbd;" horiz-adv-x="741" d="M70 279v319h-42v55q44 5 50 38h55v-412h-63zM591 691l-470 -691h-76l469 691h77zM578 420q58 0 98 -29.5t40 -84.5q0 -26 -8.5 -46t-27 -36t-32 -24.5t-39.5 -22.5q-44 -24 -69.5 -51t-36.5 -65h216v-62h-290q6 75 32 126t81 85q8 5 33.5 19t38.5 22.5t25.5 24t12.5 32.5 q0 24 -21.5 36.5t-52.5 12.5q-58 0 -92 -42l-44 41q22 31 59.5 47.5t76.5 16.5z" />
<glyph unicode="&#xbe;" horiz-adv-x="754" d="M639 411h47v-278h42v-60h-42v-73h-61v73h-215v48zM680 691l-470 -691h-76l469 691h77zM625 292l-127 -159h127v159zM161 695q53 0 89.5 -27t36.5 -76q0 -53 -41 -82q68 -23 68 -107q0 -55 -46 -91t-110 -36q-35 0 -74 14t-64 39l39 48q39 -39 100 -39q40 0 67 19.5 t27 47.5t-19 49t-53 21h-43v57h43q18 0 31.5 17.5t13.5 39.5t-18.5 33.5t-46.5 11.5q-18 0 -38.5 -11.5t-31.5 -30.5l-45 44q17 28 48.5 43.5t66.5 15.5z" />
<glyph unicode="&#xbf;" horiz-adv-x="442" d="M287 645q0 -24 -15.5 -40t-39.5 -16q-23 0 -40 16.5t-17 39.5t16.5 38t40.5 15t39.5 -15t15.5 -38zM228 -14q-93 0 -152.5 44t-59.5 131q0 57 23.5 98t64.5 82q39 39 57 71t20 76h93q-5 -84 -42 -140q-15 -22 -48 -57t-51 -63.5t-18 -61.5q0 -42 31 -62t80 -20 q80 0 143 55l60 -80q-86 -73 -201 -73z" />
<glyph unicode="&#xc0;" d="M5 0l247 692h86l248 -692h-111l-46 134h-269l-45 -134h-110zM294 545l-106 -316h213zM193 885l45 58l157 -146l-31 -42z" />
<glyph unicode="&#xc1;" d="M5 0l247 692h86l248 -692h-111l-46 134h-269l-45 -134h-110zM294 545l-106 -316h213zM351 943l45 -58l-171 -130l-31 42z" />
<glyph unicode="&#xc2;" d="M5 0l247 692h86l248 -692h-111l-46 134h-269l-45 -134h-110zM294 545l-106 -316h213zM404 754l-109 91l-109 -91l-31 36l140 143l140 -143z" />
<glyph unicode="&#xc3;" d="M5 0l247 692h86l248 -692h-111l-46 134h-269l-45 -134h-110zM294 545l-106 -316h213zM372 782q-31 0 -59.5 21t-53 41.5t-45.5 20.5q-40 0 -73 -75l-45 40q14 43 46.5 71t66.5 28q37 0 68 -21.5t54.5 -42.5t43.5 -21q42 0 75 80l45 -40q-14 -46 -50 -74t-73 -28z" />
<glyph unicode="&#xc4;" d="M5 0l247 692h86l248 -692h-111l-46 134h-269l-45 -134h-110zM294 545l-106 -316h213zM206 804q-21 0 -34.5 12.5t-13.5 32.5q0 21 13.5 34t34.5 13t34.5 -13t13.5 -34q0 -20 -13.5 -32.5t-34.5 -12.5zM385 804q-20 0 -32.5 12.5t-12.5 32.5q0 21 12.5 34t32.5 13 q22 0 34.5 -13t12.5 -34q0 -20 -12.5 -32.5t-34.5 -12.5z" />
<glyph unicode="&#xc5;" d="M5 0l247 692h86l248 -692h-111l-46 134h-269l-45 -134h-110zM294 545l-106 -316h213zM294 920q36 0 62 -25.5t26 -61.5q0 -35 -26 -61t-62 -26q-35 0 -60.5 26t-25.5 61q0 36 25.5 61.5t60.5 25.5zM294 873q-17 0 -28.5 -12t-11.5 -28q0 -18 11.5 -29.5t28.5 -11.5 t29 11.5t12 29.5q0 16 -12 28t-29 12z" />
<glyph unicode="&#xc6;" horiz-adv-x="835" d="M440 179h-212l-93 -179h-115l368 692h406v-100h-254v-189h148v-99h-148v-207h263v-97h-363v179zM440 278v310l-167 -310h167z" />
<glyph unicode="&#xc7;" horiz-adv-x="578" d="M320 606q-92 0 -144 -66t-52 -195q0 -127 52.5 -194t143.5 -67q98 0 158 77l73 -57q-87 -118 -228 -118q-134 0 -216.5 93.5t-82.5 265.5t83 266.5t216 94.5q152 0 233 -126l-73 -58q-67 84 -163 84zM266 -192l-45 21l56 151h79z" />
<glyph unicode="&#xc8;" horiz-adv-x="455" d="M35 0v692h381v-100h-282v-189h175v-99h-175v-207h290v-97h-389zM125 885l45 58l157 -146l-31 -42z" />
<glyph unicode="&#xc9;" horiz-adv-x="455" d="M35 0v692h381v-100h-282v-189h175v-99h-175v-207h290v-97h-389zM283 943l45 -58l-171 -130l-31 42z" />
<glyph unicode="&#xca;" horiz-adv-x="455" d="M35 0v692h381v-100h-282v-189h175v-99h-175v-207h290v-97h-389zM336 754l-109 91l-109 -91l-31 36l140 143l140 -143z" />
<glyph unicode="&#xcb;" horiz-adv-x="455" d="M35 0v692h381v-100h-282v-189h175v-99h-175v-207h290v-97h-389zM138 804q-21 0 -34.5 12.5t-13.5 32.5q0 21 13.5 34t34.5 13t34.5 -13t13.5 -34q0 -20 -13.5 -32.5t-34.5 -12.5zM317 804q-20 0 -32.5 12.5t-12.5 32.5q0 21 12.5 34t32.5 13q22 0 34.5 -13t12.5 -34 q0 -20 -12.5 -32.5t-34.5 -12.5z" />
<glyph unicode="&#xcc;" horiz-adv-x="169" d="M35 0v692h99v-692h-99zM-17 885l45 58l157 -146l-31 -42z" />
<glyph unicode="&#xcd;" horiz-adv-x="169" d="M35 0v692h99v-692h-99zM141 943l45 -58l-171 -130l-31 42z" />
<glyph unicode="&#xce;" horiz-adv-x="169" d="M35 0v692h99v-692h-99zM194 754l-109 91l-109 -91l-31 36l140 143l140 -143z" />
<glyph unicode="&#xcf;" horiz-adv-x="169" d="M35 0v692h99v-692h-99zM-4 804q-21 0 -34.5 12.5t-13.5 32.5q0 21 13.5 34t34.5 13t34.5 -13t13.5 -34q0 -20 -13.5 -32.5t-34.5 -12.5zM175 804q-20 0 -32.5 12.5t-12.5 32.5q0 21 12.5 34t32.5 13q22 0 34.5 -13t12.5 -34q0 -20 -12.5 -32.5t-34.5 -12.5z" />
<glyph unicode="&#xd0;" horiz-adv-x="614" d="M13 297v79h37v316h186q148 0 250.5 -99.5t102.5 -245.5q0 -145 -102.5 -246t-250.5 -101h-186v297h-37zM151 592v-216h142v-79h-142v-199h86q105 0 177.5 70.5t72.5 177.5q0 109 -72 177.5t-178 68.5h-86z" />
<glyph unicode="&#xd1;" horiz-adv-x="579" d="M139 692l306 -510v510h99v-692h-104l-306 509v-509h-99v692h104zM366 782q-31 0 -59.5 21t-53 41.5t-45.5 20.5q-40 0 -73 -75l-45 40q14 43 46.5 71t66.5 28q37 0 68 -21.5t54.5 -42.5t43.5 -21q42 0 75 80l45 -40q-14 -46 -50 -74t-73 -28z" />
<glyph unicode="&#xd2;" horiz-adv-x="635" d="M316 706q133 0 213 -94t80 -267t-80 -266t-213 -93q-132 0 -212 93.5t-80 265.5q0 173 80 267t212 94zM316 606q-91 0 -142 -66t-51 -195t51 -195t142 -66t142.5 67t51.5 194q0 129 -51 195t-143 66zM215 885l45 58l157 -146l-31 -42z" />
<glyph unicode="&#xd3;" horiz-adv-x="635" d="M316 706q133 0 213 -94t80 -267t-80 -266t-213 -93q-132 0 -212 93.5t-80 265.5q0 173 80 267t212 94zM316 606q-91 0 -142 -66t-51 -195t51 -195t142 -66t142.5 67t51.5 194q0 129 -51 195t-143 66zM373 943l45 -58l-171 -130l-31 42z" />
<glyph unicode="&#xd4;" horiz-adv-x="635" d="M316 706q133 0 213 -94t80 -267t-80 -266t-213 -93q-132 0 -212 93.5t-80 265.5q0 173 80 267t212 94zM316 606q-91 0 -142 -66t-51 -195t51 -195t142 -66t142.5 67t51.5 194q0 129 -51 195t-143 66zM426 754l-109 91l-109 -91l-31 36l140 143l140 -143z" />
<glyph unicode="&#xd5;" horiz-adv-x="635" d="M316 706q133 0 213 -94t80 -267t-80 -266t-213 -93q-132 0 -212 93.5t-80 265.5q0 173 80 267t212 94zM316 606q-91 0 -142 -66t-51 -195t51 -195t142 -66t142.5 67t51.5 194q0 129 -51 195t-143 66zM394 782q-31 0 -59.5 21t-53 41.5t-45.5 20.5q-40 0 -73 -75l-45 40 q14 43 46.5 71t66.5 28q37 0 68 -21.5t54.5 -42.5t43.5 -21q42 0 75 80l45 -40q-14 -46 -50 -74t-73 -28z" />
<glyph unicode="&#xd6;" horiz-adv-x="635" d="M316 706q133 0 213 -94t80 -267t-80 -266t-213 -93q-132 0 -212 93.5t-80 265.5q0 173 80 267t212 94zM316 606q-91 0 -142 -66t-51 -195t51 -195t142 -66t142.5 67t51.5 194q0 129 -51 195t-143 66zM228 804q-21 0 -34.5 12.5t-13.5 32.5q0 21 13.5 34t34.5 13t34.5 -13 t13.5 -34q0 -20 -13.5 -32.5t-34.5 -12.5zM407 804q-20 0 -32.5 12.5t-12.5 32.5q0 21 12.5 34t32.5 13q22 0 34.5 -13t12.5 -34q0 -20 -12.5 -32.5t-34.5 -12.5z" />
<glyph unicode="&#xd7;" horiz-adv-x="353" d="M219 340l107 -106l-43 -44l-107 107l-107 -107l-43 44l107 106l-109 108l44 45l108 -109l108 109l44 -45z" />
<glyph unicode="&#xd8;" horiz-adv-x="635" d="M413 690l18 47h67l-28 -73q140 -90 140 -319q0 -173 -80 -266t-213 -93q-47 0 -95 14l-18 -52h-67l29 78q-141 88 -141 319q0 173 80 267t212 94q51 0 96 -16zM317 611q-93 0 -145 -67.5t-52 -198.5q0 -161 81 -225l179 481q-29 10 -63 10zM317 79q93 0 145.5 68 t52.5 198q0 160 -80 224l-180 -480q26 -10 62 -10z" />
<glyph unicode="&#xd9;" horiz-adv-x="567" d="M133 692v-442q0 -65 43.5 -112t105.5 -47q61 0 105.5 47t44.5 112v442h99v-442q0 -109 -73 -183t-176 -74q-102 0 -175 74t-73 183v442h99zM181 885l45 58l157 -146l-31 -42z" />
<glyph unicode="&#xda;" horiz-adv-x="567" d="M133 692v-442q0 -65 43.5 -112t105.5 -47q61 0 105.5 47t44.5 112v442h99v-442q0 -109 -73 -183t-176 -74q-102 0 -175 74t-73 183v442h99zM339 943l45 -58l-171 -130l-31 42z" />
<glyph unicode="&#xdb;" horiz-adv-x="567" d="M133 692v-442q0 -65 43.5 -112t105.5 -47q61 0 105.5 47t44.5 112v442h99v-442q0 -109 -73 -183t-176 -74q-102 0 -175 74t-73 183v442h99zM392 754l-109 91l-109 -91l-31 36l140 143l140 -143z" />
<glyph unicode="&#xdc;" horiz-adv-x="567" d="M133 692v-442q0 -65 43.5 -112t105.5 -47q61 0 105.5 47t44.5 112v442h99v-442q0 -109 -73 -183t-176 -74q-102 0 -175 74t-73 183v442h99zM194 804q-21 0 -34.5 12.5t-13.5 32.5q0 21 13.5 34t34.5 13t34.5 -13t13.5 -34q0 -20 -13.5 -32.5t-34.5 -12.5zM373 804 q-20 0 -32.5 12.5t-12.5 32.5q0 21 12.5 34t32.5 13q22 0 34.5 -13t12.5 -34q0 -20 -12.5 -32.5t-34.5 -12.5z" />
<glyph unicode="&#xdd;" horiz-adv-x="573" d="M335 213v-213h-99v214l-232 478h113l169 -362l169 362h112zM342 943l45 -58l-171 -130l-31 42z" />
<glyph unicode="&#xde;" horiz-adv-x="518" d="M132 553h152q104 0 164.5 -54t60.5 -155q0 -102 -60.5 -156t-164.5 -54h-152v-134h-99v692h99v-139zM132 453v-221h152q57 0 91 28t34 84q0 55 -34 82t-91 27h-152z" />
<glyph unicode="&#xdf;" horiz-adv-x="483" d="M224 729q74 0 129 -47t55 -131t-71 -137q57 -20 90.5 -71t33.5 -114q0 -108 -62.5 -167.5t-169.5 -65.5v100q63 3 101.5 36.5t38.5 94.5q0 59 -36 94t-100 42v78q85 20 85 108q0 38 -26.5 60.5t-65.5 22.5q-43 0 -67.5 -32t-24.5 -93v-507h-99v519q0 102 52 156t137 54z " />
<glyph unicode="&#xe0;" horiz-adv-x="479" d="M353 0v51q-51 -65 -144 -65q-75 0 -131 47.5t-56 134.5q0 84 57.5 128t149.5 44q73 0 120 -41q0 79 -24 115.5t-90 36.5q-72 0 -125 -40l-43 81q59 53 177 53q103 0 150.5 -57t47.5 -181v-307h-89zM349 144v72q-38 45 -121 45q-113 0 -113 -93q0 -44 29.5 -68.5 t81.5 -24.5q40 0 75 21.5t48 47.5zM151 710l45 58l157 -146l-31 -42z" />
<glyph unicode="&#xe1;" horiz-adv-x="479" d="M353 0v51q-51 -65 -144 -65q-75 0 -131 47.5t-56 134.5q0 84 57.5 128t149.5 44q73 0 120 -41q0 79 -24 115.5t-90 36.5q-72 0 -125 -40l-43 81q59 53 177 53q103 0 150.5 -57t47.5 -181v-307h-89zM349 144v72q-38 45 -121 45q-113 0 -113 -93q0 -44 29.5 -68.5 t81.5 -24.5q40 0 75 21.5t48 47.5zM284 768l45 -58l-171 -130l-31 42z" />
<glyph unicode="&#xe2;" horiz-adv-x="479" d="M353 0v51q-51 -65 -144 -65q-75 0 -131 47.5t-56 134.5q0 84 57.5 128t149.5 44q73 0 120 -41q0 79 -24 115.5t-90 36.5q-72 0 -125 -40l-43 81q59 53 177 53q103 0 150.5 -57t47.5 -181v-307h-89zM349 144v72q-38 45 -121 45q-113 0 -113 -93q0 -44 29.5 -68.5 t81.5 -24.5q40 0 75 21.5t48 47.5zM348 579l-109 91l-109 -91l-31 36l140 143l140 -143z" />
<glyph unicode="&#xe3;" horiz-adv-x="479" d="M353 0v51q-51 -65 -144 -65q-75 0 -131 47.5t-56 134.5q0 84 57.5 128t149.5 44q73 0 120 -41q0 79 -24 115.5t-90 36.5q-72 0 -125 -40l-43 81q59 53 177 53q103 0 150.5 -57t47.5 -181v-307h-89zM349 144v72q-38 45 -121 45q-113 0 -113 -93q0 -44 29.5 -68.5 t81.5 -24.5q40 0 75 21.5t48 47.5zM322 607q-31 0 -59.5 20.5t-53 41.5t-45.5 21q-40 0 -73 -75l-45 40q14 43 46.5 71t66.5 28q29 0 55 -13.5t41.5 -29t34.5 -29t35 -13.5q42 0 75 80l45 -40q-14 -46 -50 -74t-73 -28z" />
<glyph unicode="&#xe4;" horiz-adv-x="479" d="M353 0v51q-51 -65 -144 -65q-75 0 -131 47.5t-56 134.5q0 84 57.5 128t149.5 44q73 0 120 -41q0 79 -24 115.5t-90 36.5q-72 0 -125 -40l-43 81q59 53 177 53q103 0 150.5 -57t47.5 -181v-307h-89zM349 144v72q-38 45 -121 45q-113 0 -113 -93q0 -44 29.5 -68.5 t81.5 -24.5q40 0 75 21.5t48 47.5zM150 629q-21 0 -34.5 12.5t-13.5 32.5q0 21 13.5 34t34.5 13t34.5 -13t13.5 -34q0 -20 -13.5 -32.5t-34.5 -12.5zM329 629q-20 0 -32.5 12.5t-12.5 32.5q0 21 12.5 34t32.5 13q22 0 34.5 -13t12.5 -34q0 -20 -12.5 -32.5t-34.5 -12.5z" />
<glyph unicode="&#xe5;" horiz-adv-x="479" d="M353 0v51q-51 -65 -144 -65q-75 0 -131 47.5t-56 134.5q0 84 57.5 128t149.5 44q73 0 120 -41q0 79 -24 115.5t-90 36.5q-72 0 -125 -40l-43 81q59 53 177 53q103 0 150.5 -57t47.5 -181v-307h-89zM349 144v72q-38 45 -121 45q-113 0 -113 -93q0 -44 29.5 -68.5 t81.5 -24.5q40 0 75 21.5t48 47.5zM245 745q36 0 62 -25.5t26 -61.5q0 -35 -26 -61t-62 -26q-35 0 -60.5 26t-25.5 61q0 36 25.5 61.5t60.5 25.5zM245 698q-17 0 -28.5 -12t-11.5 -28q0 -18 11.5 -29.5t28.5 -11.5t29 11.5t12 29.5q0 16 -12 28t-29 12z" />
<glyph unicode="&#xe6;" horiz-adv-x="818" d="M569 544q101 0 162.5 -73.5t61.5 -201.5q0 -15 -5 -35h-345q5 -75 41.5 -115.5t96.5 -40.5q66 0 110 50l63 -56q-27 -39 -75.5 -63t-103.5 -24q-129 0 -189 106q-58 -105 -174 -105q-75 0 -131 47.5t-56 134.5q0 84 57.5 128t149.5 44q68 0 117 -37v53q0 45 -27 71 t-75 26q-77 0 -134 -42l-43 81q59 53 178 53q115 0 159 -80q56 79 162 79zM352 154v62q-38 45 -121 45q-112 0 -112 -93q0 -45 29 -69t81 -24q40 0 75 24.5t48 54.5zM569 452q-109 0 -123 -140h246q-14 140 -123 140z" />
<glyph unicode="&#xe7;" horiz-adv-x="461" d="M256 447q-62 0 -98 -46.5t-36 -135.5t36 -135.5t98 -46.5q61 0 106 63l72 -64q-69 -96 -184 -96q-99 0 -162.5 73t-63.5 206q0 135 65 207.5t172 72.5q61 0 108 -27.5t71 -76.5l-76 -69q-35 75 -108 75zM207 -192l-45 21l56 151h79z" />
<glyph unicode="&#xe8;" horiz-adv-x="497" d="M248 545q100 0 161.5 -73.5t61.5 -201.5q0 -15 -5 -35h-345q5 -74 41.5 -115t96.5 -41q67 0 111 50l63 -56q-27 -39 -76 -63t-104 -24q-102 0 -165.5 73t-63.5 206q0 135 60.5 207.5t163.5 72.5zM248 453q-110 0 -124 -140h247q-7 68 -39 104t-84 36zM146 710l45 58 l157 -146l-31 -42z" />
<glyph unicode="&#xe9;" horiz-adv-x="497" d="M248 545q100 0 161.5 -73.5t61.5 -201.5q0 -15 -5 -35h-345q5 -74 41.5 -115t96.5 -41q67 0 111 50l63 -56q-27 -39 -76 -63t-104 -24q-102 0 -165.5 73t-63.5 206q0 135 60.5 207.5t163.5 72.5zM248 453q-110 0 -124 -140h247q-7 68 -39 104t-84 36zM304 768l45 -58 l-171 -130l-31 42z" />
<glyph unicode="&#xea;" horiz-adv-x="497" d="M248 545q100 0 161.5 -73.5t61.5 -201.5q0 -15 -5 -35h-345q5 -74 41.5 -115t96.5 -41q67 0 111 50l63 -56q-27 -39 -76 -63t-104 -24q-102 0 -165.5 73t-63.5 206q0 135 60.5 207.5t163.5 72.5zM248 453q-110 0 -124 -140h247q-7 68 -39 104t-84 36zM357 579l-109 91 l-109 -91l-31 36l140 143l140 -143z" />
<glyph unicode="&#xeb;" horiz-adv-x="497" d="M248 545q100 0 161.5 -73.5t61.5 -201.5q0 -15 -5 -35h-345q5 -74 41.5 -115t96.5 -41q67 0 111 50l63 -56q-27 -39 -76 -63t-104 -24q-102 0 -165.5 73t-63.5 206q0 135 60.5 207.5t163.5 72.5zM248 453q-110 0 -124 -140h247q-7 68 -39 104t-84 36zM159 629 q-21 0 -34.5 12.5t-13.5 32.5q0 21 13.5 34t34.5 13t34.5 -13t13.5 -34q0 -20 -13.5 -32.5t-34.5 -12.5zM338 629q-20 0 -32.5 12.5t-12.5 32.5q0 21 12.5 34t32.5 13q22 0 34.5 -13t12.5 -34q0 -20 -12.5 -32.5t-34.5 -12.5z" />
<glyph unicode="&#xec;" horiz-adv-x="169" d="M35 0v531h99v-531h-99zM-17 710l45 58l157 -146l-31 -42z" />
<glyph unicode="&#xed;" horiz-adv-x="169" d="M35 0v531h99v-531h-99zM141 768l45 -58l-171 -130l-31 42z" />
<glyph unicode="&#xee;" horiz-adv-x="169" d="M35 0v531h99v-531h-99zM194 579l-109 91l-109 -91l-31 36l140 143l140 -143z" />
<glyph unicode="&#xef;" horiz-adv-x="169" d="M35 0v531h99v-531h-99zM-4 629q-21 0 -34.5 12.5t-13.5 32.5q0 21 13.5 34t34.5 13t34.5 -13t13.5 -34q0 -20 -13.5 -32.5t-34.5 -12.5zM175 629q-20 0 -32.5 12.5t-12.5 32.5q0 21 12.5 34t32.5 13q22 0 34.5 -13t12.5 -34q0 -20 -12.5 -32.5t-34.5 -12.5z" />
<glyph unicode="&#xf0;" horiz-adv-x="564" d="M25 261q0 121 72 189.5t179 68.5q70 0 122 -32q-29 53 -104.5 94t-144.5 50l17 89q175 -24 274 -139t99 -286q0 -59 -15 -112.5t-44.5 -98.5t-80.5 -71.5t-117 -26.5q-119 0 -188 80t-69 195zM440 286q0 50 -11 87q-60 57 -147 57q-64 0 -112.5 -42.5t-48.5 -117.5 q0 -71 45 -127.5t116 -56.5q80 0 119 59t39 141z" />
<glyph unicode="&#xf1;" horiz-adv-x="480" d="M346 0v322q0 125 -101 125q-70 0 -111 -93v-354h-99v531h94v-51q56 65 145 65q75 0 123 -53t48 -151v-341h-99zM316 607q-31 0 -59.5 20.5t-53 41.5t-45.5 21q-40 0 -73 -75l-45 40q14 43 46.5 71t66.5 28q29 0 55 -13.5t41.5 -29t34.5 -29t35 -13.5q42 0 75 80l45 -40 q-14 -46 -50 -74t-73 -28z" />
<glyph unicode="&#xf2;" horiz-adv-x="504" d="M251 545q102 0 164.5 -73t62.5 -207t-62.5 -206.5t-164.5 -72.5t-164.5 72.5t-62.5 206.5t62.5 207t164.5 73zM251 447q-61 0 -95 -46.5t-34 -135.5t34 -135.5t95 -46.5t95.5 46.5t34.5 135.5t-34.5 135.5t-95.5 46.5zM150 710l45 58l157 -146l-31 -42z" />
<glyph unicode="&#xf3;" horiz-adv-x="504" d="M251 545q102 0 164.5 -73t62.5 -207t-62.5 -206.5t-164.5 -72.5t-164.5 72.5t-62.5 206.5t62.5 207t164.5 73zM251 447q-61 0 -95 -46.5t-34 -135.5t34 -135.5t95 -46.5t95.5 46.5t34.5 135.5t-34.5 135.5t-95.5 46.5zM308 768l45 -58l-171 -130l-31 42z" />
<glyph unicode="&#xf4;" horiz-adv-x="504" d="M251 545q102 0 164.5 -73t62.5 -207t-62.5 -206.5t-164.5 -72.5t-164.5 72.5t-62.5 206.5t62.5 207t164.5 73zM251 447q-61 0 -95 -46.5t-34 -135.5t34 -135.5t95 -46.5t95.5 46.5t34.5 135.5t-34.5 135.5t-95.5 46.5zM361 579l-109 91l-109 -91l-31 36l140 143l140 -143 z" />
<glyph unicode="&#xf5;" horiz-adv-x="504" d="M251 545q102 0 164.5 -73t62.5 -207t-62.5 -206.5t-164.5 -72.5t-164.5 72.5t-62.5 206.5t62.5 207t164.5 73zM251 447q-61 0 -95 -46.5t-34 -135.5t34 -135.5t95 -46.5t95.5 46.5t34.5 135.5t-34.5 135.5t-95.5 46.5zM328 607q-31 0 -59.5 20.5t-53 41.5t-45.5 21 q-40 0 -73 -75l-45 40q14 43 46.5 71t66.5 28q29 0 55 -13.5t41.5 -29t34.5 -29t35 -13.5q42 0 75 80l45 -40q-14 -46 -50 -74t-73 -28z" />
<glyph unicode="&#xf6;" horiz-adv-x="504" d="M251 545q102 0 164.5 -73t62.5 -207t-62.5 -206.5t-164.5 -72.5t-164.5 72.5t-62.5 206.5t62.5 207t164.5 73zM251 447q-61 0 -95 -46.5t-34 -135.5t34 -135.5t95 -46.5t95.5 46.5t34.5 135.5t-34.5 135.5t-95.5 46.5zM163 629q-21 0 -34.5 12.5t-13.5 32.5q0 21 13.5 34 t34.5 13t34.5 -13t13.5 -34q0 -20 -13.5 -32.5t-34.5 -12.5zM342 629q-20 0 -32.5 12.5t-12.5 32.5q0 21 12.5 34t32.5 13q22 0 34.5 -13t12.5 -34q0 -20 -12.5 -32.5t-34.5 -12.5z" />
<glyph unicode="&#xf7;" horiz-adv-x="313" d="M8 230v62h295v-62h-295zM118 387q0 18 11.5 31t29.5 13q17 0 30 -13t13 -31q0 -17 -13 -29t-30 -12q-18 0 -29.5 12t-11.5 29zM118 134q0 18 11.5 30.5t29.5 12.5q17 0 30 -13t13 -30t-13 -29.5t-30 -12.5q-18 0 -29.5 12t-11.5 30z" />
<glyph unicode="&#xf8;" horiz-adv-x="504" d="M337 588h66l-28 -78q104 -70 104 -245q0 -134 -62.5 -206.5t-164.5 -72.5q-34 0 -64 9l-19 -52h-66l28 76q-106 67 -106 246q0 134 62.5 207t164.5 73q34 0 66 -9zM252 451q-61 0 -96 -46.5t-35 -135.5q0 -103 46 -149l118 326q-20 5 -33 5zM252 79q59 0 95 43t36 122 q0 118 -44 166l-120 -327q15 -4 33 -4z" />
<glyph unicode="&#xf9;" horiz-adv-x="470" d="M133 531v-289q0 -83 22 -120.5t75 -37.5q35 0 59.5 22.5t45.5 70.5v354h99v-531h-94v51q-51 -65 -134 -65q-76 0 -124 52.5t-48 151.5v341h99zM133 710l45 58l157 -146l-31 -42z" />
<glyph unicode="&#xfa;" horiz-adv-x="470" d="M133 531v-289q0 -83 22 -120.5t75 -37.5q35 0 59.5 22.5t45.5 70.5v354h99v-531h-94v51q-51 -65 -134 -65q-76 0 -124 52.5t-48 151.5v341h99zM291 768l45 -58l-171 -130l-31 42z" />
<glyph unicode="&#xfb;" horiz-adv-x="470" d="M133 531v-289q0 -83 22 -120.5t75 -37.5q35 0 59.5 22.5t45.5 70.5v354h99v-531h-94v51q-51 -65 -134 -65q-76 0 -124 52.5t-48 151.5v341h99zM344 579l-109 91l-109 -91l-31 36l140 143l140 -143z" />
<glyph unicode="&#xfc;" horiz-adv-x="470" d="M133 531v-289q0 -83 22 -120.5t75 -37.5q35 0 59.5 22.5t45.5 70.5v354h99v-531h-94v51q-51 -65 -134 -65q-76 0 -124 52.5t-48 151.5v341h99zM146 629q-21 0 -34.5 12.5t-13.5 32.5q0 21 13.5 34t34.5 13t34.5 -13t13.5 -34q0 -20 -13.5 -32.5t-34.5 -12.5zM325 629 q-20 0 -32.5 12.5t-12.5 32.5q0 21 12.5 34t32.5 13q22 0 34.5 -13t12.5 -34q0 -20 -12.5 -32.5t-34.5 -12.5z" />
<glyph unicode="&#xfd;" horiz-adv-x="477" d="M471 531l-260 -723h-104l78 220l-181 503h110l125 -374l124 374h108zM294 768l45 -58l-171 -130l-31 42z" />
<glyph unicode="&#xfe;" horiz-adv-x="485" d="M35 -192v887l99 34v-253q14 30 52 49.5t84 19.5q89 0 139.5 -72t50.5 -207t-54.5 -207.5t-144.5 -72.5q-89 0 -127 63v-208zM240 81q126 0 126 184q0 90 -32 137.5t-90 47.5q-75 0 -116 -101v-173q42 -95 112 -95z" />
<glyph unicode="&#xff;" horiz-adv-x="477" d="M471 531l-260 -723h-104l78 220l-181 503h110l125 -374l124 374h108zM149 629q-21 0 -34.5 12.5t-13.5 32.5q0 21 13.5 34t34.5 13t34.5 -13t13.5 -34q0 -20 -13.5 -32.5t-34.5 -12.5zM328 629q-20 0 -32.5 12.5t-12.5 32.5q0 21 12.5 34t32.5 13q22 0 34.5 -13t12.5 -34 q0 -20 -12.5 -32.5t-34.5 -12.5z" />
<glyph unicode="&#x152;" horiz-adv-x="922" d="M517 0v87q-70 -101 -213 -101q-122 0 -200 94t-78 265t78 266t200 95q143 0 213 -103v89h367v-100h-272v-189h174v-99h-174v-207h281v-97h-376zM318 606q-91 0 -142 -66t-51 -195t51 -195t142 -66t142.5 67t51.5 194q0 129 -51 195t-143 66z" />
<glyph unicode="&#x153;" horiz-adv-x="854" d="M606 545q100 0 161.5 -73.5t61.5 -201.5q0 -15 -5 -35h-345q5 -74 41.5 -115t96.5 -41q67 0 111 50l63 -56q-27 -39 -76 -63t-104 -24q-123 0 -181 101q-55 -101 -178 -101q-102 0 -164.5 72.5t-62.5 206.5t62.5 207t164.5 73q120 0 178 -100q54 100 176 100zM252 447 q-61 0 -95 -46.5t-34 -135.5t34 -135.5t95 -46.5t95.5 46.5t34.5 135.5t-34.5 135.5t-95.5 46.5zM606 453q-110 0 -124 -140h247q-7 68 -39 104t-84 36z" />
<glyph unicode="&#x178;" horiz-adv-x="573" d="M335 213v-213h-99v214l-232 478h113l169 -362l169 362h112zM197 804q-21 0 -34.5 12.5t-13.5 32.5q0 21 13.5 34t34.5 13t34.5 -13t13.5 -34q0 -20 -13.5 -32.5t-34.5 -12.5zM376 804q-20 0 -32.5 12.5t-12.5 32.5q0 21 12.5 34t32.5 13q22 0 34.5 -13t12.5 -34 q0 -20 -12.5 -32.5t-34.5 -12.5z" />
<glyph unicode="&#x2c6;" horiz-adv-x="308" d="M263 579l-109 91l-109 -91l-31 36l140 143l140 -143z" />
<glyph unicode="&#x2dc;" horiz-adv-x="445" d="M298 607q-31 0 -59.5 20.5t-53 41.5t-45.5 21q-40 0 -73 -75l-45 40q14 43 46.5 71t66.5 28q29 0 55 -13.5t41.5 -29t34.5 -29t35 -13.5q42 0 75 80l45 -40q-14 -46 -50 -74t-73 -28z" />
<glyph unicode="&#x2000;" horiz-adv-x="471" />
<glyph unicode="&#x2001;" horiz-adv-x="943" />
<glyph unicode="&#x2002;" horiz-adv-x="471" />
<glyph unicode="&#x2003;" horiz-adv-x="943" />
<glyph unicode="&#x2004;" horiz-adv-x="314" />
<glyph unicode="&#x2005;" horiz-adv-x="235" />
<glyph unicode="&#x2006;" horiz-adv-x="157" />
<glyph unicode="&#x2007;" horiz-adv-x="157" />
<glyph unicode="&#x2008;" horiz-adv-x="117" />
<glyph unicode="&#x2009;" horiz-adv-x="188" />
<glyph unicode="&#x200a;" horiz-adv-x="52" />
<glyph unicode="&#x2010;" horiz-adv-x="375" d="M32 223v81h308v-81h-308z" />
<glyph unicode="&#x2011;" horiz-adv-x="375" d="M32 223v81h308v-81h-308z" />
<glyph unicode="&#x2013;" horiz-adv-x="518" d="M33 223v81h451v-81h-451z" />
<glyph unicode="&#x2014;" horiz-adv-x="760" d="M33 223v81h694v-81h-694z" />
<glyph unicode="&#x2018;" horiz-adv-x="177" d="M162 511l-61 -28l-92 197l85 34z" />
<glyph unicode="&#x2019;" horiz-adv-x="177" d="M75 483l-61 28l68 203l85 -34z" />
<glyph unicode="&#x201a;" horiz-adv-x="177" d="M75 -156l-61 28l68 203l85 -34z" />
<glyph unicode="&#x201c;" horiz-adv-x="337" d="M314 510l-61 -28l-92 197l85 34zM171 510l-61 -28l-92 197l85 34z" />
<glyph unicode="&#x201d;" horiz-adv-x="338" d="M226 483l-60 28l67 203l86 -34zM83 483l-61 28l68 203l86 -34z" />
<glyph unicode="&#x201e;" horiz-adv-x="337" d="M226 -156l-61 29l68 202l85 -33zM83 -156l-61 29l68 202l85 -33z" />
<glyph unicode="&#x2022;" horiz-adv-x="340" d="M170 494q61 0 104 -41.5t43 -99.5t-43 -99.5t-104 -41.5t-104 41.5t-43 99.5t43 99.5t104 41.5z" />
<glyph unicode="&#x2026;" horiz-adv-x="960" d="M31 37q0 22 14 37.5t37 15.5q21 0 37 -16t16 -37t-16 -36t-37 -15q-23 0 -37 14.5t-14 36.5zM825 37q0 22 14 37.5t37 15.5q21 0 37 -16t16 -37t-16 -36t-37 -15q-23 0 -37 14.5t-14 36.5zM428 37q0 21 15 37t36 16q22 0 37.5 -16t15.5 -37t-15.5 -36t-37.5 -15t-36.5 15 t-14.5 36z" />
<glyph unicode="&#x202f;" horiz-adv-x="188" />
<glyph unicode="&#x2039;" horiz-adv-x="188" d="M19 235v54l148 125v-75l-98 -77l98 -78v-74z" />
<glyph unicode="&#x203a;" horiz-adv-x="198" d="M174 289v-54l-148 -125v74l97 78l-97 77v75z" />
<glyph unicode="&#x205f;" horiz-adv-x="235" />
<glyph unicode="&#x20ac;" horiz-adv-x="639" d="M503 475l-53 -82h-261q-2 -9 -2 -29q0 -62 3 -78h190l-52 -81h-119q48 -139 188 -139q90 0 150 67l68 -42q-87 -105 -218 -105q-101 0 -173 56t-101 163h-111l57 81h39q-2 52 -2 83q0 16 2 24h-96l57 82h51q27 113 99.5 172t177.5 59q116 0 204 -87l-47 -70 q-69 75 -157 75q-145 0 -192 -149h298z" />
<glyph unicode="&#x2122;" horiz-adv-x="832" d="M716 691h83v-409h-62v298l-122 -298h-24l-122 298v-298h-63v409h83l113 -278zM219 629v-346h-62v346h-133v62h316v-62h-121z" />
</font>
</defs>
</svg>
